<svg xmlns="http://www.w3.org/2000/svg" viewBox="0 0 192 192" role="img" aria-label="Cute toilet mascot icon">
  <g transform="scale(0.375)">
    <defs>
      <linearGradient id="bg" x1="0" y1="0" x2="1" y2="1">
        <stop offset="0" stop-color="#fff8e8"/>
        <stop offset="1" stop-color="#fdeccd"/>
      </linearGradient>
      <linearGradient id="toiletBlue" x1="0" y1="0" x2="0" y2="1">
        <stop offset="0" stop-color="#dff3ff"/>
        <stop offset="1" stop-color="#b9ddf3"/>
      </linearGradient>
      <linearGradient id="poopMain" x1="0" y1="0" x2="0.9" y2="1">
        <stop offset="0" stop-color="#c78a54"/>
        <stop offset="1" stop-color="#8b552d"/>
      </linearGradient>
      <linearGradient id="poopShade" x1="0" y1="0" x2="1" y2="1">
        <stop offset="0" stop-color="#b67845"/>
        <stop offset="1" stop-color="#6f3f1f"/>
      </linearGradient>
      <linearGradient id="crown" x1="0" y1="0" x2="0" y2="1">
        <stop offset="0" stop-color="#ffe781"/>
        <stop offset="1" stop-color="#ffbf3f"/>
      </linearGradient>
      <filter id="softShadow" x="-20%" y="-20%" width="140%" height="140%">
        <feDropShadow dx="0" dy="8" stdDeviation="8" flood-color="#8b5a2b" flood-opacity="0.18"/>
      </filter>
    </defs>

    <rect width="512" height="512" rx="120" fill="url(#bg)"/>

    <g opacity="0.35" fill="#c6e8fb">
      <circle cx="88" cy="110" r="12"/>
      <circle cx="418" cy="126" r="18"/>
      <circle cx="106" cy="402" r="16"/>
      <circle cx="430" cy="374" r="10"/>
      <circle cx="360" cy="82" r="8"/>
    </g>

    <g filter="url(#softShadow)">
      <ellipse cx="283" cy="387" rx="119" ry="36" fill="#e7f4ff" stroke="#8ab6cf" stroke-width="8"/>
      <path d="M188 327c0-48 39-87 87-87h30c48 0 87 39 87 87v60H188z" fill="url(#toiletBlue)" stroke="#86b2c9" stroke-width="10"/>
      <rect x="330" y="155" width="66" height="136" rx="24" fill="url(#toiletBlue)" stroke="#86b2c9" stroke-width="10"/>
      <rect x="343" y="176" width="40" height="36" rx="14" fill="#f2fbff" stroke="#86b2c9" stroke-width="8"/>
      <path d="M315 245c26 6 43 22 50 47" fill="none" stroke="#86b2c9" stroke-width="10" stroke-linecap="round"/>
    </g>

    <g transform="translate(145 120)">
      <path d="M112 2c34 0 54 21 56 49 32 12 53 37 53 68 0 19-8 35-21 47 18 12 29 30 29 52 0 39-34 67-83 67H75c-44 0-75-25-75-61 0-22 12-40 31-53-10-12-16-27-16-44 0-32 22-58 55-68 4-33 23-57 42-57z" fill="url(#poopMain)" stroke="#6f3f1f" stroke-width="8"/>
      <path d="M180 77c-18-20-57-24-87-13" fill="none" stroke="#a46435" stroke-width="10" stroke-linecap="round" opacity="0.55"/>
      <path d="M40 179c21 16 49 19 75 15" fill="none" stroke="#a46435" stroke-width="9" stroke-linecap="round" opacity="0.5"/>

      <ellipse cx="92" cy="116" rx="12" ry="14" fill="#432311"/>
      <ellipse cx="146" cy="116" rx="12" ry="14" fill="#432311"/>
      <ellipse cx="90" cy="112" rx="3" ry="3.6" fill="#fff"/>
      <ellipse cx="144" cy="112" rx="3" ry="3.6" fill="#fff"/>
      <path d="M96 145c10 10 33 10 43 0" fill="none" stroke="#432311" stroke-width="8" stroke-linecap="round"/>

      <ellipse cx="63" cy="134" rx="12" ry="8" fill="#f6b7a5"/>
      <ellipse cx="173" cy="134" rx="12" ry="8" fill="#f6b7a5"/>

      <path d="M77 168c-19 12-20 28-6 37" fill="none" stroke="#6f3f1f" stroke-width="8" stroke-linecap="round"/>
      <path d="M156 169c19 9 22 24 8 35" fill="none" stroke="#6f3f1f" stroke-width="8" stroke-linecap="round"/>

      <path d="M88 262c0 18-9 29-24 29-12 0-19-8-19-19 0-13 10-21 23-24" fill="url(#poopShade)" stroke="#6f3f1f" stroke-width="8" stroke-linecap="round"/>
      <path d="M146 262c0 18 9 29 24 29 12 0 19-8 19-19 0-13-10-21-23-24" fill="url(#poopShade)" stroke="#6f3f1f" stroke-width="8" stroke-linecap="round"/>

      <path d="M93 8l16-20 16 20 16-17 15 17v24H77V8l16-17z" fill="url(#crown)" stroke="#b67f1f" stroke-width="7" stroke-linejoin="round" transform="translate(0 -20)"/>
      <circle cx="109" cy="-9" r="6" fill="#ffd24a" stroke="#b67f1f" stroke-width="4"/>
      <circle cx="126" cy="-15" r="6" fill="#ffd24a" stroke="#b67f1f" stroke-width="4"/>
      <circle cx="142" cy="-9" r="6" fill="#ffd24a" stroke="#b67f1f" stroke-width="4"/>

      <ellipse cx="110" cy="56" rx="22" ry="10" fill="#f8e1b8" opacity="0.55"/>
      <ellipse cx="133" cy="48" rx="10" ry="6" fill="#f8e1b8" opacity="0.7"/>
    </g>
  </g>
</svg>
